<?xml version="1.0" standalone="no"?><!DOCTYPE svg PUBLIC "-//W3C//DTD SVG 1.1//EN" "http://www.w3.org/Graphics/SVG/1.1/DTD/svg11.dtd"><svg t="1700705829596" class="icon" viewBox="0 0 1201 1024" version="1.1" xmlns="http://www.w3.org/2000/svg" p-id="34833" xmlns:xlink="http://www.w3.org/1999/xlink" width="234.5703125" height="200"><path d="M1060.352 158.208H565.248L494.592 16.896h-353.28c-78.336 0-141.312 63.488-141.312 141.312V865.28c0 78.336 63.488 141.312 141.312 141.312H1060.352c78.336 0 141.312-63.488 141.312-141.312V300.032c0.512-78.336-62.976-141.824-141.312-141.824z m71.168 707.584c0 38.912-31.744 70.656-70.656 70.656H141.312c-38.912 0-70.656-31.744-70.656-70.656V158.208c0-38.912 31.744-70.656 70.656-70.656H451.072l70.656 141.312H1060.352c38.912 0 70.656 31.744 70.656 70.656v566.272z" fill="#666666" p-id="34834"></path><path d="M762.88 539.136h-123.904V415.744c0-24.576-19.968-44.032-44.032-44.032-24.576 0-44.032 19.968-44.032 44.032v123.904H427.008c-24.576 0-44.032 19.968-44.032 44.032 0 24.576 19.968 44.032 44.032 44.032h123.904v123.904c0 24.576 19.968 44.032 44.032 44.032 24.576 0 44.032-19.968 44.032-44.032v-123.904h123.904c24.576 0 44.032-19.968 44.032-44.032 0.512-24.576-19.456-44.544-44.032-44.544z" fill="#666666" p-id="34835"></path></svg>