<?xml version="1.0" standalone="no"?><!DOCTYPE svg PUBLIC "-//W3C//DTD SVG 1.1//EN" "http://www.w3.org/Graphics/SVG/1.1/DTD/svg11.dtd"><svg t="1700705996877" class="icon" viewBox="0 0 1024 1024" version="1.1" xmlns="http://www.w3.org/2000/svg" p-id="80535" xmlns:xlink="http://www.w3.org/1999/xlink" width="200" height="200"><path d="M928 639.015c-16.753 0-30 13.581-30 30.333v92.849C898 835.608 838.152 895 764.974 895H256.889C182.879 895 123 835.608 123 762.197v-92.849c0-16.753-13.748-30.333-30.5-30.333S62 652.595 62 669.348v92.849C62 869.061 149.427 956 256.889 956h508.085c51.85 0 100.304-20.148 136.759-56.733C938.132 862.738 958 814.059 958 762.197v-92.849c0-16.753-13.247-30.333-30-30.333z" fill="#666666" p-id="80536"></path><path d="M486.91 720.111c5.923 5.923 13.686 8.884 21.449 8.884 7.763 0 15.526-2.961 21.449-8.884l155.505-155.505c11.846-11.846 11.846-31.053 0-42.899s-31.052-11.846-42.898 0L540 624.122V184.013c0-16.753-13.747-30.333-30.5-30.333S479 167.26 479 184.013v442.392L376.447 523.851c-11.846-11.843-31.052-11.843-42.898 0-11.846 11.846-11.846 31.053 0 42.899L486.91 720.111z" fill="#666666" p-id="80537"></path></svg>