<?xml version="1.0" standalone="no"?><!DOCTYPE svg PUBLIC "-//W3C//DTD SVG 1.1//EN" "http://www.w3.org/Graphics/SVG/1.1/DTD/svg11.dtd"><svg t="1701095015307" class="icon" viewBox="0 0 1024 1024" version="1.1" xmlns="http://www.w3.org/2000/svg" p-id="15115" xmlns:xlink="http://www.w3.org/1999/xlink" width="200" height="200"><path d="M518.4 575.9c21.2 0 38.3-17.1 38.3-38.3v-437c0-21.2-17.1-38.3-38.3-38.3-21.2 0-38.3 17.1-38.3 38.3v437c0 21.1 17.2 38.3 38.3 38.3z" fill="#d81e06" p-id="15116"></path><path d="M875.1 283.4c-45.8-69.4-110-124.1-185.6-158.2-19.3-8.7-41.9-0.1-50.6 19.2-8.7 19.3-0.1 41.9 19.2 50.6 129 58 212.3 186.8 212.3 328.3C870.4 721.6 709 883 510.7 883S150.8 721.6 150.8 523.2c0-139.7 82-268 208.8-326.6 19.2-8.8 27.6-31.6 18.6-50.9-8.8-19.2-31.6-27.6-50.9-18.6-74.6 34.6-137.7 89.2-182.7 158.2C98.4 356.1 74 438.4 74 523.3c0 58.9 11.5 116 34.3 169.8 22 52 53.4 98.6 93.5 138.7 40 40 86.8 71.5 138.7 93.5 53.8 22.8 111 34.3 169.8 34.3 58.9 0 116-11.5 169.8-34.3 52-22 98.7-53.4 138.7-93.5 40-40 71.5-86.8 93.5-138.7 22.8-53.8 34.3-111 34.3-169.8 0.3-85.8-24.5-168.7-71.5-239.9z" fill="#d81e06" p-id="15117"></path></svg>