<?xml version="1.0" standalone="no"?><!DOCTYPE svg PUBLIC "-//W3C//DTD SVG 1.1//EN" "http://www.w3.org/Graphics/SVG/1.1/DTD/svg11.dtd"><svg t="1700479388652" class="icon" viewBox="0 0 1024 1024" version="1.1" xmlns="http://www.w3.org/2000/svg" p-id="7471" data-spm-anchor-id="a313x.search_index.0.i14.7b043a81VstgVM" xmlns:xlink="http://www.w3.org/1999/xlink" width="200" height="200"><path d="M204.8 204.8m-204.8 0a204.8 204.8 0 1 0 409.6 0 204.8 204.8 0 1 0-409.6 0Z" fill="#fff3f2" p-id="7472" data-spm-anchor-id="a313x.search_index.0.i15.7b043a81VstgVM" class=""></path><path d="M819.2 204.8m-204.8 0a204.8 204.8 0 1 0 409.6 0 204.8 204.8 0 1 0-409.6 0Z" fill="#f8a79d" p-id="7473" data-spm-anchor-id="a313x.search_index.0.i6.7b043a81VstgVM" class=""></path><path d="M819.2 819.2m-204.8 0a204.8 204.8 0 1 0 409.6 0 204.8 204.8 0 1 0-409.6 0Z" fill="#f13c24" p-id="7474" data-spm-anchor-id="a313x.search_index.0.i7.7b043a81VstgVM" class=""></path><path d="M204.8 819.2m-204.8 0a204.8 204.8 0 1 0 409.6 0 204.8 204.8 0 1 0-409.6 0Z" fill="#da2008" p-id="7475" data-spm-anchor-id="a313x.search_index.0.i13.7b043a81VstgVM" class=""></path></svg>