<?xml version="1.0" standalone="no"?><!DOCTYPE svg PUBLIC "-//W3C//DTD SVG 1.1//EN" "http://www.w3.org/Graphics/SVG/1.1/DTD/svg11.dtd"><svg t="1700674680233" class="icon" viewBox="0 0 1170 1024" version="1.1" xmlns="http://www.w3.org/2000/svg" p-id="13200" xmlns:xlink="http://www.w3.org/1999/xlink" width="228.515625" height="200"><path d="M964.571429 0c32.914286 0 60.342857 26.514286 61.257142 59.428571v84.114286c0 8.228571-7.314286 15.542857-15.542857 15.542857-8.228571 0-14.628571-6.4-15.542857-13.714285V62.171429c0-16.457143-12.8-30.171429-29.257143-31.085715H61.257143a31.085714 31.085714 0 0 0-31.085714 29.257143v802.742857c0 16.457143 12.8 30.171429 29.257142 31.085715H400.457143l90.514286 90.514285c11.885714 11.885714 30.171429 11.885714 42.057142 0.914286l0.914286-0.914286 90.514286-90.514285h339.2c16.457143 0 30.171429-12.8 31.085714-29.257143V585.142857c0-8.228571 7.314286-15.542857 15.542857-15.542857 8.228571 0 14.628571 6.4 15.542857 13.714286V861.257143c0 32.914286-26.514286 60.342857-59.428571 61.257143H638.171429l-81.371429 81.371428c-23.771429 23.771429-61.257143 23.771429-85.028571 1.828572l-1.828572-1.828572-81.371428-81.371428H62.171429c-32.914286 0-60.342857-26.514286-61.257143-59.428572V61.257143C0 28.342857 26.514286 0.914286 59.428571 0h905.142858z m-585.142858 915.2l9.142858 9.142857h12.8l-21.942858-9.142857z m267.885715 0l-21.942857 9.142857h12.8l9.142857-9.142857z m-0.914286-283.428571c8.228571 0 14.628571 6.4 15.542857 13.714285v0.914286c0 8.228571-7.314286 15.542857-15.542857 15.542857H379.428571c-8.228571 0-15.542857-6.4-15.542857-15.542857 0-8.228571 7.314286-15.542857 15.542857-15.542857h266.971429zM333.714286 373.028571l0.914285 0.914286c6.4 6.4 6.4 15.542857 0 21.942857L309.028571 420.571429l25.6 25.6c5.485714 5.485714 6.4 14.628571 0.914286 21.028571l-0.914286 0.914286c-6.4 6.4-15.542857 6.4-21.942857 0l-25.6-25.6-25.6 25.6c-6.4 6.4-15.542857 6.4-21.942857 0s-6.4-15.542857 0-21.942857L265.142857 420.571429l-25.6-25.6c-6.4-6.4-6.4-15.542857 0-21.942858s15.542857-6.4 21.942857 0l25.6 25.6 25.6-25.6c5.485714-4.571429 14.628571-5.485714 21.028572 0z m451.657143 0l0.914285 0.914286c6.4 6.4 6.4 15.542857 0 21.942857L760.685714 420.571429l25.6 25.6c5.485714 5.485714 6.4 14.628571 0.914286 21.028571l-0.914286 0.914286c-6.4 6.4-15.542857 6.4-21.942857 0l-25.6-25.6-25.6 25.6c-6.4 6.4-15.542857 6.4-21.942857 0s-6.4-15.542857 0-21.942857l25.6-25.6-25.6-25.6c-6.4-6.4-6.4-15.542857 0-21.942858s15.542857-6.4 21.942857 0l25.6 25.6 25.6-25.6c5.485714-4.571429 14.628571-5.485714 21.028572 0z" fill="#d81e06" p-id="13201"></path><path d="M1056.914286 533.942857c51.2 0 113.371429-21.028571 113.371428-115.2s-102.4-224-113.371428-224c-10.057143 0-113.371429 130.742857-113.371429 224s63.085714 115.2 113.371429 115.2z" fill="#d81e06" p-id="13202"></path></svg>