<svg t="1698214983534" class="icon" viewBox="0 0 1024 1024" version="1.1" xmlns="http://www.w3.org/2000/svg" p-id="1832" width="200" height="200"><path d="M874.058005 149.941995a510.06838 510.06838 0 1 0 109.740156 162.738976 511.396369 511.396369 0 0 0-109.740156-162.738976z" fill="#d33a31" p-id="1833" data-spm-anchor-id="a313x.manage_type_myprojects.0.i1.46fc3a81u8i7GH" class=""></path><path d="M417.954256 281.533601a41.046923 41.046923 0 0 0-41.77128 40.201839v385.116718a41.892007 41.892007 0 0 0 83.663287 0v-385.116718a41.167649 41.167649 0 0 0-41.892007-40.201839zM606.045744 281.533601a41.046923 41.046923 0 0 0-41.77128 40.201839v385.116718a41.892007 41.892007 0 0 0 83.663287 0v-385.116718a41.167649 41.167649 0 0 0-41.892007-40.201839z" fill="#ffffff" p-id="1834" data-spm-anchor-id="a313x.manage_type_myprojects.0.i2.46fc3a81u8i7GH" class="selected"></path></svg>