<?xml version="1.0" standalone="no"?><!DOCTYPE svg PUBLIC "-//W3C//DTD SVG 1.1//EN" "http://www.w3.org/Graphics/SVG/1.1/DTD/svg11.dtd"><svg t="1700756295378" class="icon" viewBox="0 0 1024 1024" version="1.1" xmlns="http://www.w3.org/2000/svg" p-id="5139" xmlns:xlink="http://www.w3.org/1999/xlink" width="200" height="200"><path d="M556.125091 22.900364c-15.825455-8.192-33.885091-5.771636-47.104 6.888727L302.731636 221.742545C271.825455 250.414545 232.354909 266.24 191.394909 266.24l-120.459636-0.558545c-11.543273 0-23.272727 5.026909-30.906182 14.336-8.192 9.309091-13.405091 21.969455-12.846546 35.002181L26.065455 709.538909c0 13.032727 4.654545 25.693091 12.846545 35.002182s19.735273 14.336 31.278545 14.336h123.252364c40.773818 0 80.244364 15.825455 110.778182 44.497454l204.613818 190.650182c12.846545 12.660364 31.278545 15.080727 47.104 6.888728 15.825455-8.564364 25.693091-25.693091 25.693091-44.869819V67.211636c0-18.618182-9.867636-35.560727-25.506909-44.311272z" fill="#d81e06" p-id="5140"></path><path d="M725.364364 285.416727c-9.867636-5.399273-21.224727-5.771636-31.464728-1.861818-10.24 4.282182-18.432 12.288-22.900363 23.272727-9.867636 22.900364-1.675636 49.710545 19.176727 61.626182 2.792727 1.861818 64.046545 37.608727 64.046545 140.008727 0 109.661091-57.530182 145.780364-59.950545 146.897455-20.666182 12.288-28.858182 39.098182-18.432 61.998545 7.074909 16.384 21.597091 25.693091 37.050182 25.693091 6.516364 0 12.660364-1.861818 18.432-4.654545 4.468364-2.420364 105.565091-60.881455 105.565091-229.562182 0.186182-163.281455-107.240727-221.184-111.522909-223.418182z" fill="#d81e06" p-id="5141"></path><path d="M853.829818 148.945455c-9.309091-6.516364-20.666182-8.936727-31.092363-5.771637-10.984727 2.420364-20.107636 10.053818-25.693091 19.735273-12.660364 21.038545-7.074909 49.152 11.915636 63.860364 4.468364 3.537455 110.592 84.340364 110.592 285.230545 0 201.448727-101.841455 282.251636-105.565091 285.230545-19.176727 14.708364-24.017455 42.635636-11.357091 64.41891 6.144 10.053818 15.080727 16.942545 26.065455 19.735272 10.984727 2.420364 22.341818 0 31.092363-7.074909C865.745455 870.4 1001.658182 765.579636 1001.658182 512c0.186182-254.138182-141.870545-358.772364-147.828364-363.054545z" fill="#d81e06" p-id="5142"></path></svg>