<?xml version="1.0" standalone="no"?><!DOCTYPE svg PUBLIC "-//W3C//DTD SVG 1.1//EN" "http://www.w3.org/Graphics/SVG/1.1/DTD/svg11.dtd"><svg t="1700705977930" class="icon" viewBox="0 0 1024 1024" version="1.1" xmlns="http://www.w3.org/2000/svg" p-id="79477" xmlns:xlink="http://www.w3.org/1999/xlink" width="200" height="200"><path d="M758.853 956H256.638C150.417 956 64 870.065 64 764.436V262.22C64 156.229 150.417 70 256.638 70H507.75c16.559 0 29.983 13.441 29.983 30s-13.424 30-29.983 30H256.638C183.482 130 124 189.295 124 262.22v502.217C124 836.999 183.482 896 256.638 896h502.216C831.186 896 890 836.999 890 764.436V543.733c0-16.56 13.44-29.983 30-29.983s30 13.424 30 29.983v220.704c0 51.263-19.814 99.379-55.792 135.486C858.174 936.085 810.104 956 758.853 956zM929 344.345c-16.56 0-30-13.424-30-29.983V130H711.635c-16.56 0-29.983-13.44-29.983-30s13.424-30 29.983-30h217.377C945.571 70 959 83.424 959 99.983v214.379c0 16.56-13.44 29.983-30 29.983z" fill="#666666" p-id="79478"></path><path d="M589.452 467.623c-7.674 0-15.347-2.927-21.201-8.781-11.709-11.709-11.709-30.695 0-42.404l296.846-296.846c11.709-11.709 30.695-11.709 42.404 0s11.709 30.693 0 42.402L610.653 458.842c-5.854 5.854-13.527 8.781-21.201 8.781z" fill="#666666" p-id="79479"></path></svg>