<svg t="1697532772616" class="icon" viewBox="0 0 1024 1024" version="1.1" xmlns="http://www.w3.org/2000/svg" p-id="5378" width="200" height="200"><path d="M903.712 853.952c-45.184-136.128-158.976-235.552-296.992-267.2A223.808 223.808 0 0 0 736 384a224 224 0 1 0-448 0 223.872 223.872 0 0 0 129.312 202.784c-138.016 31.584-251.808 131.04-297.024 267.136a32.032 32.032 0 0 0 60.736 20.16C227.552 734.048 360.576 640 512 640c151.488 0 284.48 94.048 330.944 234.048a32 32 0 0 0 60.768-20.096zM352 384c0-88.224 71.776-160 160-160 88.192 0 160 71.776 160 160s-71.776 160-160 160-160-71.776-160-160z" fill="#ffffff" p-id="5379"></path></svg>